<?xml version="1.0" encoding="UTF-8" standalone="no"?>
<svg
   xmlns:dc="http://purl.org/dc/elements/1.1/"
   xmlns:cc="http://creativecommons.org/ns#"
   xmlns:rdf="http://www.w3.org/1999/02/22-rdf-syntax-ns#"
   xmlns:svg="http://www.w3.org/2000/svg"
   xmlns="http://www.w3.org/2000/svg"
   xmlns:sodipodi="http://sodipodi.sourceforge.net/DTD/sodipodi-0.dtd"
   xmlns:inkscape="http://www.inkscape.org/namespaces/inkscape"
   viewBox="0 0 558.75 261.25"
   height="261.25"
   width="558.75"
   xml:space="preserve"
   version="1.1"
   id="svg2"
   inkscape:version="0.91 r13725"
   sodipodi:docname="logotext.svg"><sodipodi:namedview
     pagecolor="#ffffff"
     bordercolor="#666666"
     borderopacity="1"
     objecttolerance="10"
     gridtolerance="10"
     guidetolerance="10"
     inkscape:pageopacity="0"
     inkscape:pageshadow="2"
     inkscape:window-width="1440"
     inkscape:window-height="855"
     id="namedview3500"
     showgrid="false"
     inkscape:zoom="2.3230426"
     inkscape:cx="218.4657"
     inkscape:cy="157.39442"
     inkscape:window-x="0"
     inkscape:window-y="0"
     inkscape:window-maximized="0"
     inkscape:current-layer="g12" /><metadata
     id="metadata8"><rdf:RDF><cc:Work
         rdf:about=""><dc:format>image/svg+xml</dc:format><dc:type
           rdf:resource="http://purl.org/dc/dcmitype/StillImage" /></cc:Work></rdf:RDF></metadata><defs
     id="defs6" /><g
     inkscape:groupmode="layer"
     id="layer3"
     inkscape:label="Layer 1"
     style="display:inline"><g
       transform="matrix(1.7418468,0,0,-2.5562238,-65.969425,409.66739)"
       id="g10"><g
         transform="scale(0.1,0.1)"
         id="g12"><path
           style="fill:none;fill-opacity:1;fill-rule:nonzero;stroke:none;opacity:0"
           d="m 49.503906,62.373047 0,124.406253 396.033204,0 0,-124.406253 -396.033204,0 z"
           transform="matrix(8,0,0,-8,0,2090)"
           id="path14"
           inkscape:connector-curvature="0" /><path
           style="fill:#ed1c24;fill-opacity:1;fill-rule:evenodd;stroke:none"
           d="M 84.78125 15.158203 C 84.453065 15.162928 84.124768 15.182448 83.794922 15.216797 C 73.134994 14.21987 63.973287 28.789782 64.216797 44.101562 C 64.042612 99.546057 64.198914 155.01627 64.146484 210.48633 C 63.536838 223.1905 68.413369 234.89945 75.833984 241.11133 C 81.459453 243.25804 87.539612 243.94678 92.869141 239.83203 C 99.801865 235.25562 103.82543 223.98386 103.51172 213.04297 C 103.49395 156.67823 103.54784 100.31395 103.47852 43.949219 C 104.18706 28.893061 94.95498 15.011727 84.78125 15.158203 z M 83.857422 29.429688 C 88.926601 29.470577 93.792004 35.806142 93.669922 43.589844 C 93.896536 98.344158 93.636362 153.0992 93.810547 207.85352 C 93.74035 213.24766 94.052936 219.51102 91.091797 223.54883 C 87.172642 230.88621 77.993441 229.35114 75.398438 220.76172 C 73.691253 216.00663 73.934749 210.48695 73.847656 205.27148 C 73.987178 152.35816 73.831559 99.44313 73.935547 46.529297 C 73.726699 39.167372 76.40953 31.422921 81.6875 29.8125 C 82.406012 29.547292 83.133253 29.423846 83.857422 29.429688 z "
           transform="matrix(5.741033,0,0,-3.9120205,378.73265,1602.6272)"
           id="path16" /><path
           id="path18"
           style="fill:#7f7f7f;fill-opacity:1;fill-rule:nonzero;stroke:none"
           d="m 2217,1540 c 18.6,0 37.3,0 56,0 -0.1,-7.2 -0.1,-21.7 -0.1,-28.9 43.2,35.8 107.4,29.7 146.1,-9.8 41.5,37.5 108.9,47.7 155,12.7 38.3,-27.9 45.8,-79 46.1,-123.2 -0.2,-243.6 0,-487.198 -0.1,-730.8 -20,0 -40,0 -60,0 -0.5,254 0.9,508 -0.6,761.9 1.9,27.8 -19.7,56.3 -48.6,56.8 -33.1,5.7 -64.1,-24.7 -60.7,-57.6 -0.3,-253.7 0,-507.401 -0.1,-761.1 -20,0 -40,0 -60,0 -0.2,250.301 0.3,500.7 -0.2,751 5.7,37.9 -29,75.8 -67.9,67.4 -32.9,-2.7 -50.2,-37.6 -48.8,-67.5 -0.2,-250.3 0,-500.599 -0.1,-750.9 -18.7,0 -37.4,0 -56,0 -0.1,293.301 0,586.6 0,880"
           inkscape:connector-curvature="0" /><path
           id="path20"
           style="fill:#ed1c24;fill-opacity:1;fill-rule:nonzero;stroke:none"
           d="m 475.699,1494.6 c 40.403,53.7 128.699,54.1 172.801,4.8 21.398,-20.5 24.199,-51.2 28.699,-78.8 -19.5,-0.4 -38.898,-0.6 -58.398,-0.8 -0.403,6.6 -1.301,19.7 -1.801,26.3 -10.5,10.6 -21,21.1 -31.699,31.5 -12.199,0.4 -24.301,0.6 -36.5,0.9 -9.801,-5.2 -19.602,-10.3 -29.403,-15.4 -24.296,-54.6 -11,-115.4 -14.296,-173.1 2.898,-43.5 -9.903,-93 16.296,-131.5 30.403,-26.2 77.301,-14.2 108.301,-39.4 27.199,-19.4 45.403,-50.6 44.801,-84.4 1.199,-89.899 1.199,-179.802 0,-269.7 0.602,-80.898 -101.699,-131 -168.102,-88.898 -38.097,18.296 -51.097,61.097 -59.199,99.296 19.301,-0.199 38.5,-0.398 57.801,-0.699 4.699,-31.699 27.102,-53 56.699,-62.5 25.301,9.5 56.5,23.403 56.102,55.403 1.597,84.796 0.5,169.796 0.597,254.698 2.602,27.5 -17.097,54.8 -44.699,59.1 -42.898,9.3 -92.5,19.9 -113,64.1 -20.301,59.4 -9.699,123 -12.199,184.4 1.398,55.1 -9.301,118 27.199,164.7"
           inkscape:connector-curvature="0" /><path
           id="path22"
           style="fill:#ed1c24;fill-opacity:1;fill-rule:nonzero;stroke:none"
           d="m 1047,1531.6 c 18.6,-0.1 37.3,-0.1 56,0 0.3,-250.8 -0.7,-501.6 0.5,-752.299 -0.6,-34.699 27.5,-58.199 58.5,-67 24,11.398 54.9,27.398 54.5,58.199 1.2,253.7 0.2,507.4 0.5,761.1 18.6,-0.1 37.3,-0.1 56,0 -0.3,-254 0.6,-507.9 -0.4,-761.901 1.2,-69.699 -74.9,-125.199 -140.8,-104 -51.8,10.602 -87.3,62.102 -84.7,113.903 -0.4,250.698 0.1,501.298 -0.1,751.998"
           inkscape:connector-curvature="0" /><path
           style="fill:#ed1c24;fill-opacity:1;fill-rule:nonzero;stroke:none"
           d="M 182.69727 18.035156 C 178.0117 17.984032 173.28281 18.462825 168.6582 18.181641 L 168.6582 240.95703 L 178.41211 240.95703 C 178.42953 204.70952 178.36017 168.46141 178.44727 132.24023 C 184.31729 132.72592 191.82447 130.55422 195.90039 138.47852 C 198.37381 141.72492 198.25048 146.83733 198.30273 151.28516 C 198.25048 181.19272 198.26953 211.07529 198.26953 240.95703 L 208.02344 240.95703 C 207.95376 209.3368 208.16199 177.6908 207.93555 146.07031 C 208.00522 138.32495 204.94093 131.75408 202.11914 125.61914 C 204.60998 119.40752 208.10957 113.32475 207.91797 105.68164 C 208.14441 85.922031 208.04038 66.161954 207.9707 46.402344 C 208.40616 35.436144 203.49425 24.776837 196.47461 21.070312 C 192.02419 18.667462 187.38283 18.086281 182.69727 18.035156 z M 178.44727 32.496094 C 185.32756 32.598343 194.90768 31.7289 197.83398 43.308594 C 198.93135 59.668426 197.91953 76.233403 198.30273 92.669922 C 197.97178 99.571726 199.41816 108.03232 195.60352 113.40039 C 191.28374 120.50669 184.09053 117.10762 178.41211 117.95117 C 178.42953 89.449277 178.36017 60.972427 178.44727 32.496094 z "
           transform="matrix(5.741033,0,0,-3.9120205,378.73265,1602.6272)"
           id="path24" /><path
           id="path26"
           style="fill:#ed1c24;fill-opacity:1;fill-rule:nonzero;stroke:none"
           d="m 1679.7,1509.1 c 47.5,43.2 133.5,32.9 166.3,-23.4 22.8,-35.3 18.9,-78.9 19.6,-119 -19,0.2 -38.1,0.3 -57.1,0.4 0,26.4 -0.2,52.8 -0.6,79.2 -18,21.3 -41.4,35.7 -70,34.9 -25.3,-14.4 -45.1,-38.1 -42.5,-69 0.2,-214 -1.7,-428.098 1,-641.899 1.2,-40.602 42.5,-54.801 76.9,-52.199 11.8,12.296 26.9,22.898 33.4,39.199 3.6,24.597 1.6,49.5 1.9,74.199 18.9,0 37.9,0.102 56.9,0.199 -1.7,-42 5.9,-89.898 -22.9,-124.898 -29.6,-44.403 -90,-53 -137.7,-37.102 -10.6,7.903 -21.3,15.602 -32,23.199 -7.6,10.903 -15.2,21.704 -23.1,32.301 -5.4,24.5 -11.7,49 -11.4,74.199 0.1,200.403 0.2,400.802 0,601.202 0,39.2 9.6,82.4 41.3,108.5"
           inkscape:connector-curvature="0" /><path
           id="path28"
           style="fill:#ed1c24;fill-opacity:1;fill-rule:nonzero;stroke:none"
           d="m 1924.8,660 c 0,290.602 0.1,581.1 0,871.7 75.6,-0.3 151.1,-0.2 226.7,-0.2 0,-18.9 0,-37.8 0.2,-56.7 -57.3,0.1 -114.5,0 -171.7,0 0,-111.1 0,-222.2 0,-333.3 57.1,0 114.3,0 171.5,0 0,-18.9 0,-37.8 0.2,-56.7 -57.3,0.1 -114.5,0 -171.7,0 0,-123.198 0,-246.402 0,-369.601 57.2,0 114.5,-0.097 171.7,0 -0.2,-18.398 -0.2,-36.801 -0.3,-55.199 -75.5,0 -151,0 -226.6,0"
           inkscape:connector-curvature="0" /><path
           style="fill:#7f7f7f;fill-opacity:1;fill-rule:nonzero;stroke:none"
           d="M 422.58594 17.382812 C 419.60433 17.366911 416.56651 17.944516 413.70117 18.335938 C 409.97362 23.141638 405.59994 27.640306 403.71875 34.669922 C 401.47177 43.386645 402.09881 52.895765 402.01172 62.021484 C 402.11623 121.65819 402.02962 181.32007 402.06445 240.95703 L 411.81836 240.95703 C 411.81836 205.1699 411.83578 169.38284 411.81836 133.5957 L 431.67578 133.5957 C 431.65836 169.38284 431.67578 205.1699 431.67578 240.95703 L 441.42969 240.95703 C 441.44711 177.00057 441.41259 113.06805 441.46484 49.111328 C 441.76096 38.96312 439.49801 27.639146 433.31445 22.041016 C 430.15953 18.40319 426.41944 17.403257 422.58594 17.382812 z M 421.29883 31.505859 C 424.20336 31.294971 427.18294 32.816987 429.0293 36.076172 C 431.99044 40.063881 431.60659 46.376071 431.72852 51.744141 C 431.64142 73.906601 431.65836 96.06979 431.67578 118.25781 L 411.81836 118.25781 C 411.81836 96.913344 411.87209 75.594297 411.76758 54.275391 C 411.81983 48.523887 411.62734 42.261637 414.01367 37.328125 C 415.56392 33.659944 418.3943 31.716748 421.29883 31.505859 z "
           transform="matrix(5.741033,0,0,-3.9120205,378.73265,1602.6272)"
           id="path30" /><path
           id="path32"
           style="fill:#7f7f7f;fill-opacity:1;fill-rule:nonzero;stroke:none"
           d="m 3005.9,1494.9 c 40.6,53.4 128.8,53.8 172.7,4.3 21.3,-20.5 23.7,-51.3 29,-78.6 -19.6,-0.4 -39.2,-0.6 -58.8,-0.7 -0.4,7 -1.2,21 -1.7,28 -22.3,31.5 -70.2,44.4 -97.5,11.7 -25.2,-45.3 -11,-100.1 -14.4,-149.6 3.8,-49.9 -11.9,-106.3 16,-151.2 34.4,-28.1 88.6,-13.9 119.7,-48.9 41.5,-34.2 33.9,-92.1 34.5,-139.9 -2.1,-73 3.3,-146.398 -2.6,-219.301 -9.5,-73.5 -103.8,-113 -165.5,-75.199 -38.8,18.199 -51.7,61.5 -60.4,99.898 19.1,-0.199 38.3,-0.5 57.4,-0.898 6.3,-31 28,-52.301 57,-63.102 24.7,10.704 56.9,23.903 56.3,56.102 2.1,84.699 0.6,169.602 0.7,254.4 2.6,28.2 -17.2,55.5 -45.6,59.6 -42.5,10 -92.5,19.9 -111.9,64.6 -20.6,59.1 -9.8,123 -12.4,184.3 1.4,55.1 -9.1,117.9 27.5,164.5"
           inkscape:connector-curvature="0" /><path
           id="path34"
           style="fill:#7f7f7f;fill-opacity:1;fill-rule:nonzero;stroke:none"
           d="m 3276.9,1531.6 c 18.7,0 37.4,0 56.2,0 -0.1,-130 0,-260 -0.1,-390.1 38,0.1 76,0.1 114,0 -0.1,130.1 0,260.1 -0.1,390.1 18.7,0 37.4,0 56.2,0 -0.1,-290.5 0,-580.998 -0.1,-871.6 -18.7,0 -37.4,0 -56,0 -0.1,141.602 0.1,283.102 -0.2,424.7 -37.9,0.2 -75.8,0.2 -113.6,0 -0.3,-141.598 -0.1,-283.098 -0.2,-424.7 -18.7,0 -37.4,0 -56,0 -0.1,290.602 0,581.1 -0.1,871.6"
           inkscape:connector-curvature="0" /></g></g></g></svg>