<?xml version="1.0" encoding="UTF-8" standalone="no"?>
<svg
   xmlns:dc="http://purl.org/dc/elements/1.1/"
   xmlns:cc="http://creativecommons.org/ns#"
   xmlns:rdf="http://www.w3.org/1999/02/22-rdf-syntax-ns#"
   xmlns:svg="http://www.w3.org/2000/svg"
   xmlns="http://www.w3.org/2000/svg"
   xmlns:sodipodi="http://sodipodi.sourceforge.net/DTD/sodipodi-0.dtd"
   xmlns:inkscape="http://www.inkscape.org/namespaces/inkscape"
   viewBox="0 0 551.86334 151.25558"
   height="151.25558"
   width="551.86334"
   xml:space="preserve"
   version="1.1"
   id="svg2"
   inkscape:version="0.91 r13725"
   sodipodi:docname="logotext.svg"><sodipodi:namedview
     pagecolor="#ffffff"
     bordercolor="#666666"
     borderopacity="1"
     objecttolerance="10"
     gridtolerance="10"
     guidetolerance="10"
     inkscape:pageopacity="0"
     inkscape:pageshadow="2"
     inkscape:window-width="1026"
     inkscape:window-height="860"
     id="namedview3500"
     showgrid="false"
     inkscape:zoom="0.82131959"
     inkscape:cx="152.03195"
     inkscape:cy="156.17687"
     inkscape:window-x="0"
     inkscape:window-y="0"
     inkscape:window-maximized="0"
     inkscape:current-layer="layer3"
     fit-margin-top="0"
     fit-margin-left="0"
     fit-margin-right="0"
     fit-margin-bottom="0" /><metadata
     id="metadata8"><rdf:RDF><cc:Work
         rdf:about=""><dc:format>image/svg+xml</dc:format><dc:type
           rdf:resource="http://purl.org/dc/dcmitype/StillImage" /><dc:title></dc:title></cc:Work></rdf:RDF></metadata><defs
     id="defs6" /><g
     inkscape:groupmode="layer"
     id="layer3"
     inkscape:label="Layer 1"
     style="display:inline"
     transform="translate(-3.0131516,-106.12079)"><g
       transform="matrix(1.7418468,0,0,-2.5562238,-65.969425,409.66739)"
       id="g10"><g
         transform="scale(0.1,0.1)"
         id="g12"><path
           style="opacity:0;fill:none;fill-opacity:1;fill-rule:nonzero;stroke:none"
           d="m 396.03125,1162.3374 0,-566.5718 3168.26565,0 0,566.5718 -3168.26565,0 z"
           id="path14"
           inkscape:connector-curvature="0" /><path
           style="fill:#ed1c24;fill-opacity:1;fill-rule:evenodd;stroke:none"
           d="m 865.4646,1135.19 c -1.88412,-0.011 -3.76888,-0.054 -5.66254,-0.1306 -61.199,2.2202 -113.79666,-30.2273 -112.39866,-64.3268 -1,-123.47598 -0.10267,-247.00917 -0.40367,-370.54202 -3.5,-28.29243 24.49633,-54.36848 67.09832,-68.20246 32.29601,-4.78076 67.2024,-6.3146 97.7994,2.84903 39.801,10.19175 62.90042,35.29417 61.0994,59.65974 -0.10202,125.52533 0.20737,251.04962 -0.1906,376.57491 4.06775,33.5303 -48.93393,64.4443 -107.34165,64.1182 z m -5.30372,-31.7829 c 29.10232,-0.091 57.03476,-14.2005 56.33388,-31.5349 1.301,-121.93892 -0.19267,-243.87941 0.80734,-365.81831 -0.40301,-12.01285 1.39156,-25.96147 -15.60844,-34.95374 -22.5,-16.34049 -75.19809,-12.92186 -90.09609,6.20694 -9.801,10.58967 -8.40309,22.8821 -8.90309,34.49705 0.801,117.83895 -0.0924,235.68171 0.50459,353.52186 -1.19901,16.3951 14.20321,33.6422 44.50421,37.2286 4.125,0.5905 8.30012,0.8655 12.4576,0.8525 z"
           id="path16"
           inkscape:connector-curvature="0" /><path
           id="path18"
           style="fill:#7f7f7f;fill-opacity:1;fill-rule:nonzero;stroke:none"
           d="m 2217,1133.2954 c 18.6,0 37.3,0 56,0 -0.1,-4.0988 -0.1,-12.3532 -0.1,-16.452 43.2,20.38 107.4,16.9074 146.1,-5.579 41.5,21.3479 108.9,27.1544 155,7.2298 38.3,-15.8828 45.8,-44.9728 46.1,-70.1348 -0.2,-138.67553 0,-277.34998 -0.1,-416.02671 -20,0 -40,0 -60,0 -0.5,144.59606 0.9,289.19212 -0.6,433.73121 1.9,15.8259 -19.7,32.0503 -48.6,32.3349 -33.1,3.2449 -64.1,-14.0611 -60.7,-32.7903 -0.3,-144.42526 0,-288.85111 -0.1,-433.27581 -20,0 -40,0 -60,0 -0.2,142.4903 0.3,285.0364 -0.2,427.52611 5.7,21.5756 -29,43.1511 -67.9,38.3692 -32.9,-1.5371 -50.2,-21.4048 -48.8,-38.4261 -0.2,-142.48973 0,-284.97891 -0.1,-427.46921 -18.7,0 -37.4,0 -56,0 -0.1,166.96917 0,333.93719 0,500.96271"
           inkscape:connector-curvature="0" /><path
           id="path20"
           style="fill:#ed1c24;fill-opacity:1;fill-rule:nonzero;stroke:none"
           d="m 475.699,1107.4503 c 40.403,30.57 128.699,30.7978 172.801,2.7325 21.398,-11.6702 24.199,-29.1469 28.699,-44.859 -19.5,-0.2276 -38.898,-0.3415 -58.398,-0.4554 -0.403,3.7572 -1.301,11.2148 -1.801,14.972 -10.5,6.0344 -21,12.0117 -31.699,17.9321 -12.199,0.2278 -24.301,0.3417 -36.5,0.5124 -9.801,-2.9602 -19.602,-5.8635 -29.403,-8.7668 -24.296,-31.0825 -11,-65.6944 -14.296,-98.54165 2.898,-24.7635 -9.903,-52.94265 16.296,-74.85977 30.403,-14.91502 77.301,-8.08371 108.301,-22.42946 27.199,-11.04395 45.403,-28.80536 44.801,-48.04689 1.199,-51.17732 1.199,-102.35693 0,-153.53368 0.602,-46.05327 -101.699,-74.57513 -168.102,-50.60748 -38.097,10.41547 -51.097,34.78104 -59.199,56.52681 19.301,-0.11329 38.5,-0.22657 57.801,-0.39793 4.699,-18.04546 27.102,-30.17161 56.699,-35.57973 25.301,5.40812 56.5,13.32276 56.102,31.53959 1.597,48.27231 0.5,96.66075 0.597,144.9934 2.602,15.65509 -17.097,31.19632 -44.699,33.64421 -42.898,5.29427 -92.5,11.32858 -113,36.49057 -20.301,33.81499 -9.699,70.02093 -12.199,104.97451 1.398,31.3671 -9.301,67.1745 27.199,93.7597"
           inkscape:connector-curvature="0" /><path
           id="path22"
           style="fill:#ed1c24;fill-opacity:1;fill-rule:nonzero;stroke:none"
           d="m 1047,1128.5135 c 18.6,-0.057 37.3,-0.057 56,0 0.3,-142.77438 -0.7,-285.54876 0.5,-428.26563 -0.6,-19.75331 27.5,-33.13128 58.5,-38.14149 24,6.48861 54.9,15.59702 54.5,33.13129 1.2,144.42527 0.2,288.85054 0.5,433.27583 18.6,-0.057 37.3,-0.057 56,0 -0.3,-144.59607 0.6,-289.1352 -0.4,-433.73182 1.2,-39.67796 -74.9,-71.27277 -140.8,-59.20468 -51.8,6.03546 -87.3,35.35316 -84.7,64.84221 -0.4,142.71631 0.1,285.37683 -0.1,428.09429"
           inkscape:connector-curvature="0" /><path
           style="fill:#ed1c24;fill-opacity:1;fill-rule:nonzero;stroke:none"
           d="m 1427.6037,1128.7829 c -26.9,0.1138 -54.0487,-0.9524 -80.5988,-0.3262 l 0,-496.12494 55.9976,0 c 0.1,80.72388 -0.2982,161.4491 0.2018,242.11434 33.7,-1.08164 76.799,3.75478 100.199,-13.89279 14.1999,-7.2298 13.4919,-18.61523 13.7919,-28.52063 -0.3,-66.60469 -0.1906,-133.15373 -0.1906,-199.70092 l 55.9975,0 c -0.4001,70.41884 0.7954,140.89507 -0.5046,211.3145 0.4,17.24905 -17.1922,31.8825 -33.3922,45.54513 14.3,13.83339 34.3913,27.37983 33.2913,44.40118 1.3,44.00502 0.7027,88.01103 0.3027,132.01613 2.5,24.4219 -25.6994,48.1604 -65.9994,56.4148 -25.55,5.3513 -52.1962,6.6456 -79.0962,6.7594 z m -24.3994,-32.2047 c 39.5,-0.2277 94.4998,1.7085 111.2998,-24.0797 6.3,-36.4336 0.4911,-73.32415 2.6911,-109.92858 -1.9,-15.37045 6.4037,-34.21236 -15.4963,-46.16714 -24.8,-15.82588 -66.0964,-8.25608 -98.6964,-10.13469 0.1,63.47426 -0.2982,126.89271 0.2018,190.31011 z"
           id="path24"
           inkscape:connector-curvature="0" /><path
           id="path26"
           style="fill:#ed1c24;fill-opacity:1;fill-rule:nonzero;stroke:none"
           d="m 1679.7,1115.7048 c 47.5,24.5927 133.5,18.7291 166.3,-13.3211 22.8,-20.0954 18.9,-44.9158 19.6,-67.7438 -19,0.1139 -38.1,0.1708 -57.1,0.2277 0,15.0289 -0.2,30.0577 -0.6,45.0867 -18,12.1256 -41.4,20.3231 -70,19.8677 -25.3,-8.1976 -45.1,-21.6894 -42.5,-39.2801 0.2,-121.82497 -1.7,-243.70578 1,-365.41752 1.2,-23.11374 42.5,-31.19689 76.9,-29.71562 11.8,6.99981 26.9,13.03528 33.4,22.31504 3.6,14.00247 1.6,28.17915 1.9,42.23969 18.9,0 37.9,0.0581 56.9,0.11329 -1.7,-23.90959 5.9,-51.17676 -22.9,-71.10141 -29.6,-25.27756 -90,-30.17162 -137.7,-21.12127 -10.6,4.49899 -21.3,8.88184 -32,13.20662 -7.6,6.20682 -15.2,12.35557 -23.1,18.38819 -5.4,13.94725 -11.7,27.89451 -11.4,42.23969 0.1,114.08458 0.2,228.16688 0,342.2497 0,22.3157 9.6,46.9084 41.3,61.7665"
           inkscape:connector-curvature="0" /><path
           id="path28"
           style="fill:#ed1c24;fill-opacity:1;fill-rule:nonzero;stroke:none"
           d="m 1924.8,632.33269 c 0,165.43268 0.1,330.80617 0,496.23771 75.6,-0.1707 151.1,-0.1139 226.7,-0.1139 0,-10.7592 0,-21.5185 0.2,-32.2779 -57.3,0.057 -114.5,0 -171.7,0 0,-63.2465 0,-126.49306 0,-189.7396 57.1,0 114.3,0 171.5,0 0,-10.75932 0,-21.51863 0.2,-32.27795 -57.3,0.0569 -114.5,0 -171.7,0 0,-70.13364 0,-140.2707 0,-210.4049 57.2,0 114.5,-0.0553 171.7,0 -0.2,-10.47354 -0.2,-20.94992 -0.3,-31.42346 -75.5,0 -151,0 -226.6,0"
           inkscape:connector-curvature="0" /><path
           style="fill:#7f7f7f;fill-opacity:1;fill-rule:nonzero;stroke:none"
           d="m 2804.8125,1130.2357 c -17.1175,0.036 -34.5578,-1.2509 -51.0078,-2.1226 -21.4,-10.7024 -46.5094,-20.721 -57.3094,-36.3761 -12.9,-19.4123 -9.3001,-40.5893 -9.8001,-60.9124 0.6,-132.8121 0.1028,-265.68022 0.3027,-398.49284 l 55.9975,0 c 0,79.6986 0.1001,159.39705 0,239.09568 l 114.0021,0 c -0.1,-79.69863 0,-159.39708 0,-239.09568 l 55.9976,0 c 0.1,142.43223 -0.098,284.81114 0.2018,427.24404 1.7,22.6001 -11.2917,47.8188 -46.7917,60.286 -18.1125,8.1015 -39.5845,10.3284 -61.5927,10.3739 z m -7.3894,-31.4523 c 16.675,0.4697 33.7809,-2.9198 44.3809,-10.1782 17,-8.8807 14.7963,-22.938 15.4963,-34.8929 -0.5,-49.3561 -0.4028,-98.71396 -0.3028,-148.1271 l -114.0021,0 c 0,47.53453 0.3085,95.0124 -0.2915,142.4901 0.3,12.8086 -0.8051,26.7548 12.8949,37.7419 8.9,8.1691 25.1493,12.4965 41.8243,12.9662 z"
           id="path30"
           inkscape:connector-curvature="0" /><path
           id="path32"
           style="fill:#7f7f7f;fill-opacity:1;fill-rule:nonzero;stroke:none"
           d="m 3005.9,1107.6211 c 40.6,30.3992 128.8,30.627 172.7,2.4478 21.3,-11.6701 23.7,-29.2038 29,-44.7451 -19.6,-0.2276 -39.2,-0.3415 -58.8,-0.3985 -0.4,3.9851 -1.2,11.9549 -1.7,15.9398 -22.3,17.9322 -70.2,25.2759 -97.5,6.6605 -25.2,-25.7882 -11,-56.9845 -14.4,-85.1636 3.8,-28.4069 -11.9,-60.51406 16,-86.07454 34.4,-15.99665 88.6,-7.91293 119.7,-27.83758 41.5,-19.46923 33.9,-52.4303 34.5,-79.64169 -2.1,-41.55713 3.3,-83.34084 -2.6,-124.84275 -9.5,-41.84178 -103.8,-64.32817 -165.5,-42.80897 -38.8,10.36024 -51.7,35.01046 -60.4,56.86951 19.1,-0.11329 38.3,-0.28464 57.4,-0.51121 6.3,-17.64755 28,-29.77369 57,-35.92244 24.7,6.09353 56.9,13.6074 56.3,31.93751 2.1,48.21709 0.6,96.55031 0.7,144.82377 2.6,16.05357 -17.2,31.5948 -45.6,33.92883 -42.5,5.69276 -92.5,11.3286 -111.9,36.77522 -20.6,33.6442 -9.8,70.02093 -12.4,104.91754 1.4,31.3671 -9.1,67.1177 27.5,93.6459"
           inkscape:connector-curvature="0" /><path
           id="path34"
           style="fill:#7f7f7f;fill-opacity:1;fill-rule:nonzero;stroke:none"
           d="m 3276.9,1128.5135 c 18.7,0 37.4,0 56.2,0 -0.1,-74.0058 0,-148.01173 -0.1,-222.0745 38,0.0569 76,0.0569 114,0 -0.1,74.06277 0,148.0687 -0.1,222.0745 18.7,0 37.4,0 56.2,0 -0.1,-165.37464 0,-330.74813 -0.1,-496.18081 -18.7,0 -37.4,0 -56,0 -0.1,80.61059 0.1,161.16312 -0.2,241.77144 -37.9,0.11385 -75.8,0.11385 -113.6,0 -0.3,-80.60832 -0.1,-161.16085 -0.2,-241.77144 -18.7,0 -37.4,0 -56,0 -0.1,165.43268 0,330.80617 -0.1,496.18081"
           inkscape:connector-curvature="0" /></g></g></g></svg>