<?xml version="1.0" encoding="UTF-8" standalone="no"?>
<svg
   xmlns:dc="http://purl.org/dc/elements/1.1/"
   xmlns:cc="http://creativecommons.org/ns#"
   xmlns:rdf="http://www.w3.org/1999/02/22-rdf-syntax-ns#"
   xmlns:svg="http://www.w3.org/2000/svg"
   xmlns="http://www.w3.org/2000/svg"
   viewBox="0 0 558.75 261.25"
   height="261.25"
   width="558.75"
   xml:space="preserve"
   version="1.1"
   id="svg2"><metadata
     id="metadata8"><rdf:RDF><cc:Work
         rdf:about=""><dc:format>image/svg+xml</dc:format><dc:type
           rdf:resource="http://purl.org/dc/dcmitype/StillImage" /></cc:Work></rdf:RDF></metadata><defs
     id="defs6" /><g
     transform="matrix(1.25,0,0,-1.25,0,261.25)"
     id="g10"><g
       transform="scale(0.1,0.1)"
       id="g12"><path
         id="path14"
         style="fill:#ffffff;fill-opacity:1;fill-rule:nonzero;stroke:none"
         d="m 0,0 4470,0 0,2090 L 0,2090 0,0 Z" /><path
         id="path16"
         style="fill:#ed1c24;fill-opacity:1;fill-rule:nonzero;stroke:none"
         d="m 747.398,1430.1 c -1.398,59.9 51.204,116.9 112.403,113 60.597,4.3 117.199,-51.6 113,-112.4 0.398,-220.5 0.097,-441.001 0.199,-661.501 1.801,-42.801 -21.301,-86.898 -61.102,-104.801 -30.597,-16.097 -65.5,-13.398 -97.796,-5 C 771.5,683.699 743.5,729.5 747,779.199 c 0.301,217 -0.602,434.001 0.398,650.901" /><path
         id="path18"
         style="fill:#7f7f7f;fill-opacity:1;fill-rule:nonzero;stroke:none"
         d="m 2217,1540 c 18.6,0 37.3,0 56,0 -0.1,-7.2 -0.1,-21.7 -0.1,-28.9 43.2,35.8 107.4,29.7 146.1,-9.8 41.5,37.5 108.9,47.7 155,12.7 38.3,-27.9 45.8,-79 46.1,-123.2 -0.2,-243.6 0,-487.198 -0.1,-730.8 -20,0 -40,0 -60,0 -0.5,254 0.9,508 -0.6,761.9 1.9,27.8 -19.7,56.3 -48.6,56.8 -33.1,5.7 -64.1,-24.7 -60.7,-57.6 -0.3,-253.7 0,-507.401 -0.1,-761.1 -20,0 -40,0 -60,0 -0.2,250.301 0.3,500.7 -0.2,751 5.7,37.9 -29,75.8 -67.9,67.4 -32.9,-2.7 -50.2,-37.6 -48.8,-67.5 -0.2,-250.3 0,-500.599 -0.1,-750.9 -18.7,0 -37.4,0 -56,0 -0.1,293.301 0,586.6 0,880" /><path
         id="path20"
         style="fill:#ed1c24;fill-opacity:1;fill-rule:nonzero;stroke:none"
         d="m 475.699,1494.6 c 40.403,53.7 128.699,54.1 172.801,4.8 21.398,-20.5 24.199,-51.2 28.699,-78.8 -19.5,-0.4 -38.898,-0.6 -58.398,-0.8 -0.403,6.6 -1.301,19.7 -1.801,26.3 -10.5,10.6 -21,21.1 -31.699,31.5 -12.199,0.4 -24.301,0.6 -36.5,0.9 -9.801,-5.2 -19.602,-10.3 -29.403,-15.4 -24.296,-54.6 -11,-115.4 -14.296,-173.1 2.898,-43.5 -9.903,-93 16.296,-131.5 30.403,-26.2 77.301,-14.2 108.301,-39.4 27.199,-19.4 45.403,-50.6 44.801,-84.4 1.199,-89.899 1.199,-179.802 0,-269.7 0.602,-80.898 -101.699,-131 -168.102,-88.898 -38.097,18.296 -51.097,61.097 -59.199,99.296 19.301,-0.199 38.5,-0.398 57.801,-0.699 4.699,-31.699 27.102,-53 56.699,-62.5 25.301,9.5 56.5,23.403 56.102,55.403 1.597,84.796 0.5,169.796 0.597,254.698 2.602,27.5 -17.097,54.8 -44.699,59.1 -42.898,9.3 -92.5,19.9 -113,64.1 -20.301,59.4 -9.699,123 -12.199,184.4 1.398,55.1 -9.301,118 27.199,164.7" /><path
         id="path22"
         style="fill:#ed1c24;fill-opacity:1;fill-rule:nonzero;stroke:none"
         d="m 1047,1531.6 c 18.6,-0.1 37.3,-0.1 56,0 0.3,-250.8 -0.7,-501.6 0.5,-752.299 -0.6,-34.699 27.5,-58.199 58.5,-67 24,11.398 54.9,27.398 54.5,58.199 1.2,253.7 0.2,507.4 0.5,761.1 18.6,-0.1 37.3,-0.1 56,0 -0.3,-254 0.6,-507.9 -0.4,-761.901 1.2,-69.699 -74.9,-125.199 -140.8,-104 -51.8,10.602 -87.3,62.102 -84.7,113.903 -0.4,250.698 0.1,501.298 -0.1,751.998" /><path
         id="path24"
         style="fill:#ed1c24;fill-opacity:1;fill-rule:nonzero;stroke:none"
         d="m 1347,1531.5 c 53.1,-2.2 108.6,7.5 159.7,-11.3 40.3,-14.5 68.5,-56.2 66,-99.1 0.4,-77.3 1,-154.6 -0.3,-231.9 1.1,-29.9 -19,-53.7 -33.3,-78 16.2,-24 33.8,-49.7 33.4,-80 1.3,-123.7 0.1,-247.501 0.5,-371.2 -18.7,0 -37.4,0 -56,0 0,116.898 -0.1,233.801 0.2,350.8 -0.3,17.4 0.4,37.4 -13.8,50.1 -23.4,31 -66.5,22.5 -100.2,24.4 -0.5,-141.698 -0.1,-283.499 -0.2,-425.3 -18.7,0 -37.4,0 -56,0 0,290.5 0,581 0,871.5" /><path
         id="path26"
         style="fill:#ed1c24;fill-opacity:1;fill-rule:nonzero;stroke:none"
         d="m 1679.7,1509.1 c 47.5,43.2 133.5,32.9 166.3,-23.4 22.8,-35.3 18.9,-78.9 19.6,-119 -19,0.2 -38.1,0.3 -57.1,0.4 0,26.4 -0.2,52.8 -0.6,79.2 -18,21.3 -41.4,35.7 -70,34.9 -25.3,-14.4 -45.1,-38.1 -42.5,-69 0.2,-214 -1.7,-428.098 1,-641.899 1.2,-40.602 42.5,-54.801 76.9,-52.199 11.8,12.296 26.9,22.898 33.4,39.199 3.6,24.597 1.6,49.5 1.9,74.199 18.9,0 37.9,0.102 56.9,0.199 -1.7,-42 5.9,-89.898 -22.9,-124.898 -29.6,-44.403 -90,-53 -137.7,-37.102 -10.6,7.903 -21.3,15.602 -32,23.199 -7.6,10.903 -15.2,21.704 -23.1,32.301 -5.4,24.5 -11.7,49 -11.4,74.199 0.1,200.403 0.2,400.802 0,601.202 0,39.2 9.6,82.4 41.3,108.5" /><path
         id="path28"
         style="fill:#ed1c24;fill-opacity:1;fill-rule:nonzero;stroke:none"
         d="m 1924.8,660 c 0,290.602 0.1,581.1 0,871.7 75.6,-0.3 151.1,-0.2 226.7,-0.2 0,-18.9 0,-37.8 0.2,-56.7 -57.3,0.1 -114.5,0 -171.7,0 0,-111.1 0,-222.2 0,-333.3 57.1,0 114.3,0 171.5,0 0,-18.9 0,-37.8 0.2,-56.7 -57.3,0.1 -114.5,0 -171.7,0 0,-123.198 0,-246.402 0,-369.601 57.2,0 114.5,-0.097 171.7,0 -0.2,-18.398 -0.2,-36.801 -0.3,-55.199 -75.5,0 -151,0 -226.6,0" /><path
         id="path30"
         style="fill:#7f7f7f;fill-opacity:1;fill-rule:nonzero;stroke:none"
         d="m 2753.8,1530.9 c 37.6,3.5 80.4,10.8 112.6,-14.5 35.5,-21.9 48.5,-66.2 46.8,-105.9 -0.3,-250.2 -0.1,-500.301 -0.2,-750.5 -18.7,0 -37.4,0 -56,0 0,140 -0.1,280 0,420 -38,0 -76,0 -114,0 0.1,-140 0,-280 0,-420 -18.7,0 -37.4,0 -56,0 -0.2,233.301 0.3,466.7 -0.3,700 0.5,35.7 -3.1,72.9 9.8,107 10.8,27.5 35.9,45.1 57.3,63.9" /><path
         id="path32"
         style="fill:#7f7f7f;fill-opacity:1;fill-rule:nonzero;stroke:none"
         d="m 3005.9,1494.9 c 40.6,53.4 128.8,53.8 172.7,4.3 21.3,-20.5 23.7,-51.3 29,-78.6 -19.6,-0.4 -39.2,-0.6 -58.8,-0.7 -0.4,7 -1.2,21 -1.7,28 -22.3,31.5 -70.2,44.4 -97.5,11.7 -25.2,-45.3 -11,-100.1 -14.4,-149.6 3.8,-49.9 -11.9,-106.3 16,-151.2 34.4,-28.1 88.6,-13.9 119.7,-48.9 41.5,-34.2 33.9,-92.1 34.5,-139.9 -2.1,-73 3.3,-146.398 -2.6,-219.301 -9.5,-73.5 -103.8,-113 -165.5,-75.199 -38.8,18.199 -51.7,61.5 -60.4,99.898 19.1,-0.199 38.3,-0.5 57.4,-0.898 6.3,-31 28,-52.301 57,-63.102 24.7,10.704 56.9,23.903 56.3,56.102 2.1,84.699 0.6,169.602 0.7,254.4 2.6,28.2 -17.2,55.5 -45.6,59.6 -42.5,10 -92.5,19.9 -111.9,64.6 -20.6,59.1 -9.8,123 -12.4,184.3 1.4,55.1 -9.1,117.9 27.5,164.5" /><path
         id="path34"
         style="fill:#7f7f7f;fill-opacity:1;fill-rule:nonzero;stroke:none"
         d="m 3276.9,1531.6 c 18.7,0 37.4,0 56.2,0 -0.1,-130 0,-260 -0.1,-390.1 38,0.1 76,0.1 114,0 -0.1,130.1 0,260.1 -0.1,390.1 18.7,0 37.4,0 56.2,0 -0.1,-290.5 0,-580.998 -0.1,-871.6 -18.7,0 -37.4,0 -56,0 -0.1,141.602 0.1,283.102 -0.2,424.7 -37.9,0.2 -75.8,0.2 -113.6,0 -0.3,-141.598 -0.1,-283.098 -0.2,-424.7 -18.7,0 -37.4,0 -56,0 -0.1,290.602 0,581.1 -0.1,871.6" /><path
         id="path36"
         style="fill:#ffffff;fill-opacity:1;fill-rule:nonzero;stroke:none"
         d="m 847.699,1486 c 33,8.3 69.602,-19.1 68.801,-53.9 1.301,-214.2 -0.199,-428.4 0.801,-642.6 -0.403,-21.102 1.398,-45.602 -15.602,-61.398 -22.5,-28.704 -75.199,-22.704 -90.097,10.898 -9.801,18.602 -8.403,40.199 -8.903,60.602 0.801,206.998 -0.097,413.998 0.5,620.998 -1.199,28.8 14.199,59.1 44.5,65.4" /><path
         id="path38"
         style="fill:#ffffff;fill-opacity:1;fill-rule:nonzero;stroke:none"
         d="m 2755.6,1456.6 c 17.8,28.7 65,30.4 86.2,4.9 17,-15.6 14.8,-40.3 15.5,-61.3 -0.5,-86.7 -0.4,-173.4 -0.3,-260.2 -38,0 -76,0 -114,0 0,83.5 0.3,166.9 -0.3,250.3 0.3,22.5 -0.8,47 12.9,66.3" /><path
         id="path40"
         style="fill:#ffffff;fill-opacity:1;fill-rule:nonzero;stroke:none"
         d="m 1403.2,1475.5 c 39.5,-0.4 94.5,3 111.3,-42.3 6.3,-64 0.5,-128.8 2.7,-193.1 -1.9,-27 6.4,-60.1 -15.5,-81.1 -24.8,-27.8 -66.1,-14.5 -98.7,-17.8 0.1,111.5 -0.3,222.9 0.2,334.3" /></g></g></svg>