<?xml version="1.0" encoding="UTF-8" standalone="no"?>
<svg
   xmlns:dc="http://purl.org/dc/elements/1.1/"
   xmlns:cc="http://creativecommons.org/ns#"
   xmlns:rdf="http://www.w3.org/1999/02/22-rdf-syntax-ns#"
   xmlns:svg="http://www.w3.org/2000/svg"
   xmlns="http://www.w3.org/2000/svg"
   viewBox="0 0 1778.75 878.75"
   height="878.75"
   width="1778.75"
   xml:space="preserve"
   version="1.1"
   id="svg2"><metadata
     id="metadata8"><rdf:RDF><cc:Work
         rdf:about=""><dc:format>image/svg+xml</dc:format><dc:type
           rdf:resource="http://purl.org/dc/dcmitype/StillImage" /></cc:Work></rdf:RDF></metadata><defs
     id="defs6" /><g
     transform="matrix(1.25,0,0,-1.25,0,878.75)"
     id="g10"><g
       transform="scale(0.1,0.1)"
       id="g12"><path
         id="path14"
         style="fill:#ffffff;fill-opacity:1;fill-rule:nonzero;stroke:none"
         d="m 0,0 14230,0 0,7030 L 0,7030 0,0 Z" /><path
         id="path16"
         style="fill:#7f7f7f;fill-opacity:1;fill-rule:nonzero;stroke:none"
         d="m 4212.6,5335.3 c 26.7,10.3 52.8,22.1 78.2,35.4 44,-24.5 90.9,-42.9 137.4,-62.1 234.9,-102.9 470.5,-204.3 705.7,-306.4 -0.7,-165.9 0.7,-331.9 -0.7,-497.8 -250.7,101.6 -501.2,203.7 -751,307.5 67,-178.8 138.8,-355.8 206.8,-534.3 47.1,-117.8 95.8,-235.2 134.8,-355.9 -93.7,-34.1 -185.8,-72.4 -278.7,-108.6 -45.3,-16.4 -90.9,-32.1 -134.4,-52.8 -17.6,56.1 -40.3,110.3 -64.2,163.9 -161.9,408.7 -323.7,817.3 -483.8,1226.7 150.7,59.7 299.2,124.8 449.9,184.4" /><path
         id="path18"
         style="fill:#ed1c24;fill-opacity:1;fill-rule:nonzero;stroke:none"
         d="m 5743.1,4567.6 c 61,30.3 146.9,-10.3 150.9,-81.3 2.2,-205.4 -0.1,-410.9 1.1,-616.3 -0.3,-25 0.9,-51.6 -12.5,-73.9 -24.2,-46.4 -85.9,-66.6 -133.5,-45.8 -39.2,15.6 -66.2,57 -64.4,99.3 -0.9,200.1 0.2,400.4 -0.5,600.5 -0.8,25.5 4.4,50.4 10.8,74.9 15,15.2 28.9,32.4 48.1,42.6" /><path
         id="path20"
         style="fill:#ed1c24;fill-opacity:1;fill-rule:nonzero;stroke:none"
         d="m 5444.1,4546.1 c 28.3,30.4 72.8,19.7 109.6,19.5 38.5,-21.1 63.2,-58.8 64.6,-103.1 -16.6,-0.3 -33.2,-0.5 -49.6,-0.7 -7,20.6 -18.8,38.8 -34.3,53.9 -9.7,0.5 -29.1,1.6 -38.8,2.1 -33,-16.7 -43,-53.4 -39.6,-87.9 3.8,-71 -8.7,-143.8 11,-213.2 39.8,-22.8 94.8,-14.9 125.1,-53.7 26.4,-27.4 23.9,-67.7 24.1,-102.9 -1,-69.9 0.8,-139.8 -0.7,-209.6 1,-43.5 -31.1,-83.2 -72.4,-94.8 -25,-9.4 -51.5,-2.2 -76.9,0.8 -18.4,15 -35.7,31.3 -50.9,49.4 -3.5,17.1 -7.6,34 -11.5,50.9 17.4,-0.3 34.8,-0.6 52.3,-1.2 8.2,-17.9 18,-35.2 28.7,-51.9 16.4,0.7 33.1,0.1 49.4,3.4 11.6,8.7 20.4,20.4 30.2,31 -1.4,80.8 0.3,161.7 -0.6,242.5 0.2,18 -6.5,34.8 -11.5,51.7 -45.3,19.7 -106.3,17.8 -133.5,66.2 -24.9,53.5 -10.6,114.6 -14.3,171.5 2.1,59.4 -13.6,133.6 39.6,176.1" /><path
         id="path22"
         style="fill:#ed1c24;fill-opacity:1;fill-rule:nonzero;stroke:none"
         d="m 5965,4565.6 c 17,0.1 34,0.1 51.1,0.1 -0.1,-232.2 -0.2,-464.4 -0.1,-696.5 -2.2,-25.3 15.7,-45.2 29.7,-64.2 16.5,-0.2 33.2,-0.2 49.8,-0.2 12,16.9 31,32.3 28.9,55 0.6,235.3 0.1,470.6 0.2,705.8 16.9,0.1 33.9,0.1 51,0 -0.4,-238.2 0.3,-476.5 -0.3,-714.8 1.2,-63.4 -67.3,-113.5 -127.5,-96.8 -49,8.3 -85.6,56.4 -82.6,105.7 -0.4,235.3 0.1,470.6 -0.2,705.9" /><path
         id="path24"
         style="fill:#ed1c24;fill-opacity:1;fill-rule:nonzero;stroke:none"
         d="m 6245.7,4565.6 c 63.4,-3.7 143.5,17 189.8,-39.5 25.7,-25.5 20.2,-63.4 20.9,-96.3 -1,-63.5 1,-127.1 -0.8,-190.7 1.1,-26 -17.8,-45.9 -29.8,-67.1 13.9,-21.6 31.5,-44 30,-71.3 1.1,-117.2 0,-234.4 0.4,-351.6 -17,0 -34,0.1 -50.9,0 -0.4,113.9 0.7,227.8 -0.4,341.6 2,22.9 -17.9,37.3 -30.2,53.6 -26.1,1.4 -52,2.1 -78,2 0,-132.4 0,-264.8 0,-397.2 -17,0 -34.1,0.1 -50.9,0 -0.1,272.2 0.1,544.3 -0.1,816.5" /><path
         id="path26"
         style="fill:#ed1c24;fill-opacity:1;fill-rule:nonzero;stroke:none"
         d="m 6555.3,4544.2 c 29,28.7 74.1,26.8 111.1,19 59.6,-22.7 69.4,-93.2 67.6,-148.9 -18.7,-0.5 -37.3,-0.9 -55.8,-1.2 1.4,37.3 4.3,78.6 -29,103.7 -33.4,5.4 -76.4,-10.8 -75.1,-50.3 -1.9,-201.8 -0.7,-403.7 -0.6,-605.5 -3.2,-24 14.8,-40.5 30.4,-55.7 10.4,0 31.3,-0.1 41.7,-0.2 38.2,22 33.5,66.3 32.6,104.1 18.5,-0.5 37.1,-1.1 55.8,-1.9 -1.3,-45.7 -0.5,-99.8 -39.4,-131.6 -41.6,-36.1 -103.6,-28.4 -145.5,2.9 -19.1,30.3 -31.8,64.9 -30.6,101.2 -0.1,186.9 0.1,373.9 -0.1,560.8 0.2,37 8,77.8 36.9,103.6" /><path
         id="path28"
         style="fill:#ed1c24;fill-opacity:1;fill-rule:nonzero;stroke:none"
         d="m 6786.1,4565.3 c 70.6,0.6 141.3,0.2 212,0.3 -0.1,-17.2 -0.1,-34.5 0,-51.9 -53.2,0.1 -106.4,0.1 -159.6,0.1 -0.2,-104.2 0,-208.4 -0.1,-312.5 53.2,0 106.3,-0.1 159.5,0 -0.2,-18.3 -0.3,-36.6 -0.5,-55 -53,0.3 -106,0.2 -159,0.1 0,-114.5 0,-229 0,-343.5 52.8,0 105.6,-0.2 158.4,0.2 0.6,-18 1.1,-35.9 1.7,-54 -70.8,0 -141.6,0 -212.3,0.1 -0.1,272 0.1,544.1 -0.1,816.1" /><path
         id="path30"
         style="fill:#7f7f7f;fill-opacity:1;fill-rule:nonzero;stroke:none"
         d="m 7062.4,4574.1 c 16.9,0.1 33.8,0.2 50.9,0.1 -0.1,-6.5 -0.3,-19.7 -0.4,-26.3 40.9,31.8 96.8,22.1 137.2,-5.1 38.4,23.8 86.7,34.2 130,17.3 43.6,-22 58.8,-73.7 57.9,-119.4 -0.1,-230.5 0,-461.1 0,-691.6 -18.7,0 -37.3,0 -55.8,0 -0.3,237.2 0.4,474.4 -0.3,711.6 1.7,28.9 -21.3,59.7 -52.3,56.3 -29.8,2.2 -53.4,-27.1 -50.7,-55.7 -0.6,-237.4 0,-474.8 -0.2,-712.2 -18.7,0 -37.3,0 -55.8,0 0,233.9 0,467.7 0.1,701.6 5.1,35.3 -25.3,73.4 -62.6,66 -32.6,-1.4 -49.2,-37 -47.1,-66 -0.1,-233.8 0.1,-467.7 0,-701.6 -17.1,0 -33.9,0 -50.8,0 -0.1,275 0.1,550 -0.1,825" /><path
         id="path32"
         style="fill:#7f7f7f;fill-opacity:1;fill-rule:nonzero;stroke:none"
         d="m 7564.6,4566.2 c 35.6,-1.3 77.1,9.7 107,-15.5 32,-22.5 43.1,-63.3 41.5,-100.7 -0.4,-233.6 -0.1,-467.2 -0.2,-700.9 -17,0.1 -33.8,0 -50.6,0 -2,127.9 2.5,256 -1.7,383.8 -1.6,2.3 -5,6.8 -6.7,9.1 -33.4,2.9 -66.9,1.1 -100.3,1 -0.3,-131.3 0,-262.6 -0.1,-393.9 -17.1,0 -34,0 -50.8,0 -0.2,217.2 0.2,434.3 -0.2,651.4 0.3,32.5 -2.3,65.4 4,97.5 8.3,30.2 35.8,48.7 58.1,68.2" /><path
         id="path34"
         style="fill:#7f7f7f;fill-opacity:1;fill-rule:nonzero;stroke:none"
         d="m 7808.8,4541.1 c 28,32.7 75.8,30.2 114.1,22 42.5,-14.8 62.2,-58.4 65.8,-100.5 -18.1,-0.4 -36.3,-0.8 -54.2,-1.2 -0.2,5.7 -0.6,17 -0.8,22.6 -10.5,11.1 -20.9,22.2 -31.1,33.2 -25.4,0 -58.5,-1.8 -68.4,-30.1 -15.4,-47.3 -5.1,-98.2 -8,-147.1 2,-39.9 -7.7,-84.2 13.7,-120.4 32.6,-30.2 88,-15.8 118,-51.6 35.1,-33 27.4,-84.7 28.3,-128.1 -2,-68.7 3.1,-137.7 -2.3,-206.2 -9.9,-72.6 -106.9,-107.6 -163.7,-64 -30.5,18.5 -39.4,54.5 -47.9,86.5 17.8,0 35.7,0 53.7,-0.2 10,-20 17.1,-50.1 44.2,-51.8 30,-7.6 60.6,15.3 62.9,45.7 3,63.4 -0.6,127 1.3,190.4 1.4,31.3 -2.1,62.4 -11.5,92.2 -45.7,18.6 -106.8,18.2 -133.9,66.2 -24.7,53.4 -11,114.3 -14.4,171.1 2.4,57.4 -13.4,127.4 34.2,171.3" /><path
         id="path36"
         style="fill:#7f7f7f;fill-opacity:1;fill-rule:nonzero;stroke:none"
         d="m 8054.4,4565.7 c 16.9,0 33.9,0 51,0 -0.2,-121.4 0.1,-242.7 -0.1,-364.1 36.3,-0.3 72.6,-0.3 108.9,0.5 -0.6,121.2 0,242.4 -0.2,363.6 16.9,0 33.9,0 51,-0.1 -0.1,-272.1 -0.1,-544.3 -0.1,-816.5 -17.1,0 -34,0.1 -50.9,0 0,132.3 -0.1,264.6 0,396.9 -36.2,0.5 -72.4,0.6 -108.6,0.1 -0.1,-132.3 0,-264.6 0,-397 -17.1,0.1 -34.1,0 -50.9,0 -0.1,272.2 0,544.4 -0.1,816.6" /><path
         id="path38"
         style="fill:#7f7f7f;fill-opacity:1;fill-rule:nonzero;stroke:none"
         d="m 3353.2,4359.8 c 145.9,59.2 292.1,117.8 437.2,179.1 46.1,-126.5 103.9,-248.2 150.7,-374.5 18.4,-48.8 37.5,-97.5 59.3,-145 52.1,-122 95.7,-247.4 149.6,-368.6 65.3,-162 129.1,-324.6 197.4,-485.3 -87.1,40.4 -172.7,84.1 -260.4,123.1 -111.1,61.2 -231.3,103.6 -340.9,167.5 -16.4,11.9 -22.8,32.2 -31,49.7 -119.1,285.2 -242.7,568.7 -361.9,854" /><path
         id="path40"
         style="fill:#ffffff;fill-opacity:1;fill-rule:nonzero;stroke:none"
         d="m 5735.4,4460.6 c -2.7,28.5 15.7,56.2 43.4,64 36.1,7.5 70.4,-28.3 65.2,-64 -0.2,-200.4 -0.1,-400.9 0,-601.3 4,-31.1 -23.3,-65.9 -55.7,-63.4 -26.3,-2.3 -39.9,24.1 -53.3,41.9 0.8,207.6 0,415.2 0.4,622.8" /><path
         id="path42"
         style="fill:#ffffff;fill-opacity:1;fill-rule:nonzero;stroke:none"
         d="m 7569.1,4500.9 c 14,19.2 41.5,19 61.9,11.9 26.3,-13.6 31.3,-45.4 31.3,-72.2 0.3,-79.8 -0.6,-159.6 0.1,-239.4 -36.3,-2.2 -72.6,-2.4 -108.9,-2.3 0,77.1 0.2,154.2 -0.4,231.3 0.4,24.1 -1.3,51.5 16,70.7" /><path
         id="path44"
         style="fill:#ffffff;fill-opacity:1;fill-rule:nonzero;stroke:none"
         d="m 6296.9,4514.3 c 37.3,0.3 84.5,2 105.1,-36.1 7.7,-55.6 1.1,-112.2 3.5,-168.2 -2.1,-34.8 9.9,-80.1 -25.6,-102.1 -25.7,-12.2 -56,-4.6 -83.4,-6.1 0.5,104.2 -0.2,208.3 0.4,312.5" /><path
         id="path46"
         style="fill:#f0444d;fill-opacity:1;fill-rule:nonzero;stroke:none"
         d="m 4745.8,3736.8 c 16.7,6.4 33.3,13.4 49.7,20.7 10.7,-42.2 18.3,-85.1 27.2,-127.8 1,-30.1 1.6,-60.5 8.6,-90 -5.1,-34.6 -9.4,-69.5 -16.8,-103.8 -50.7,-123.6 -179.5,-183.1 -294.7,-232.1 -45.7,128.7 -94.5,256.5 -145,383.4 122.5,52.8 248.1,97.9 371,149.6" /></g></g></svg>