<?xml version="1.0" encoding="UTF-8" standalone="no"?>
<svg
   xmlns:dc="http://purl.org/dc/elements/1.1/"
   xmlns:cc="http://creativecommons.org/ns#"
   xmlns:rdf="http://www.w3.org/1999/02/22-rdf-syntax-ns#"
   xmlns:svg="http://www.w3.org/2000/svg"
   xmlns="http://www.w3.org/2000/svg"
   viewBox="0 0 350 415"
   height="415"
   width="350"
   xml:space="preserve"
   version="1.1"
   id="svg2"><metadata
     id="metadata8"><rdf:RDF><cc:Work
         rdf:about=""><dc:format>image/svg+xml</dc:format><dc:type
           rdf:resource="http://purl.org/dc/dcmitype/StillImage" /></cc:Work></rdf:RDF></metadata><defs
     id="defs6" /><g
     transform="matrix(1.25,0,0,-1.25,0,415)"
     id="g10"><g
       transform="scale(0.1,0.1)"
       id="g12"><path
         id="path14"
         style="fill:#ffffff;fill-opacity:1;fill-rule:nonzero;stroke:none"
         d="m 0,0 2800,0 0,3320 L 0,3320 0,0 Z" /><path
         id="path16"
         style="fill:#7f7f7f;fill-opacity:1;fill-rule:nonzero;stroke:none"
         d="m 1249.1,2848 c 299,-132.1 599.7,-260.6 899.7,-390.5 1.7,-177.1 2.3,-354.2 0.3,-531.3 -267.7,106.1 -532.9,218.4 -800.2,325.4 65.2,-174.4 134.2,-347.3 201.9,-520.6 53.1,-142.8 116.1,-282.1 161.7,-427.6 -147.9,-54.4 -293.9,-113.7 -440.6,-171.2 -68.2,185.5 -148.9,366.2 -218.2,551.3 -121.501,311.1 -247.802,620.4 -366.098,932.7 187.699,75.8 375.198,152.5 561.498,231.8" /><path
         id="path18"
         style="fill:#7f7f7f;fill-opacity:1;fill-rule:nonzero;stroke:none"
         d="M 249.898,1770.6 C 405.199,1834.8 560.5,1898.9 716.801,1960.5 912.5,1472.3 1112,985.5 1308.8,497.699 c -137.5,66.102 -275.5,131 -412.402,198.199 -76.296,36.801 -157,66.204 -227.898,112.903 -45,60.5 -66.602,134.5 -96.898,202.799 -105.801,253.6 -216.704,505.1 -321.704,759" /><path
         id="path20"
         style="fill:#ef434d;fill-opacity:1;fill-rule:nonzero;stroke:none"
         d="m 1341.4,948.199 c 149.3,61.101 299.8,119.101 448.9,180.701 19.8,-123.2 67.5,-261.701 -0.1,-379.201 C 1726.7,641 1607.4,583.102 1494.1,539.602 1444.7,676.398 1392.9,812.199 1341.4,948.199" /></g></g></svg>